HIERARCHY
ROOT Hips
{
	OFFSET -3.958830 18.904000 13.208200
	CHANNELS 6 Xposition Yposition Zposition Zrotation Yrotation Xrotation 
	JOINT LHipJoint
	{
		OFFSET 0.000000 0.000000 0.000000
		CHANNELS 3 Zrotation Yrotation Xrotation
		JOINT LeftUpLeg
		{
			OFFSET 1.800000 -1.400000 0.085000
			CHANNELS 3 Zrotation Yrotation Xrotation
			JOINT LeftLeg
			{
				OFFSET 2.215000 -6.000000 0.000000
				CHANNELS 3 Zrotation Yrotation Xrotation
				JOINT LeftFoot
				{
					OFFSET 2.500000 -6.900000 0.000000
					CHANNELS 3 Zrotation Yrotation Xrotation
					JOINT LeftToeBase
					{
						OFFSET 0.200000 -0.500000 1.950000
						CHANNELS 3 Zrotation Yrotation Xrotation
						End Site
						{
							OFFSET 0.000000 0.000000 0.000000
						}
					}
				}
			}
		}
	}
	JOINT RHipJoint
	{
		OFFSET 0.000000 0.000000 0.000000
		CHANNELS 3 Zrotation Yrotation Xrotation
		JOINT RightUpLeg
		{
			OFFSET -1.800000 -1.400000 0.085000
			CHANNELS 3 Zrotation Yrotation Xrotation
			JOINT RightLeg
			{
				OFFSET -2.215000 -6.000000 0.000000
				CHANNELS 3 Zrotation Yrotation Xrotation
				JOINT RightFoot
				{
					OFFSET -2.500000 -6.900000 0.000000
					CHANNELS 3 Zrotation Yrotation Xrotation
					JOINT RightToeBase
					{
						OFFSET -0.200000 -0.500000 1.950000
						CHANNELS 3 Zrotation Yrotation Xrotation
						End Site
						{
							OFFSET 0.000000 0.000000 0.000000
						}
					}
				}
			}
		}
	}
	JOINT LowerBack
	{
		OFFSET 0.000000 0.000000 0.000000
		CHANNELS 3 Zrotation Yrotation Xrotation
		JOINT Spine
		{
			OFFSET -0.087000 1.940000 -0.288900
			CHANNELS 3 Zrotation Yrotation Xrotation
			JOINT Spine1
			{
				OFFSET 0.000000 1.950000 0.060000
				CHANNELS 3 Zrotation Yrotation Xrotation
				JOINT Neck
				{
					OFFSET 0.000000 0.000000 0.000000
					CHANNELS 3 Zrotation Yrotation Xrotation
					JOINT Neck1
					{
						OFFSET 0.000000 1.600000 0.340000
						CHANNELS 3 Zrotation Yrotation Xrotation
						JOINT Head
						{
							OFFSET 0.000000 1.667000 -0.240000
							CHANNELS 3 Zrotation Yrotation Xrotation
							End Site
							{
								OFFSET 0.000000 0.000000 0.000000
							}
						}
					}
				}
				JOINT LeftShoulder
				{
					OFFSET 0.000000 0.000000 0.000000
					CHANNELS 3 Zrotation Yrotation Xrotation
					JOINT LeftArm
					{
						OFFSET 2.700000 1.550000 -0.730000
						CHANNELS 3 Zrotation Yrotation Xrotation
						JOINT LeftForeArm
						{
							OFFSET 5.450000 0.000000 0.000000
							CHANNELS 3 Zrotation Yrotation Xrotation
							JOINT LeftHand
							{
								OFFSET 3.450000 0.000000 0.000000
								CHANNELS 3 Zrotation Yrotation Xrotation
								JOINT LeftHandIndex1
								{
									OFFSET 0.750000 0.000000 0.000000
									CHANNELS 3 Zrotation Yrotation Xrotation
									End Site
									{
										OFFSET 0.000000 0.000000 0.000000
									}
								}
							}
						}
					}
				}
				JOINT RightShoulder
				{
					OFFSET 0.000000 0.000000 0.000000
					CHANNELS 3 Zrotation Yrotation Xrotation
					JOINT RightArm
					{
						OFFSET -2.700000 1.550000 -0.730000
						CHANNELS 3 Zrotation Yrotation Xrotation
						JOINT RightForeArm
						{
							OFFSET -5.450000 0.000000 0.000000
							CHANNELS 3 Zrotation Yrotation Xrotation
							JOINT RightHand
							{
								OFFSET -3.450000 0.000000 0.000000
								CHANNELS 3 Zrotation Yrotation Xrotation
								JOINT RightHandIndex1
								{
									OFFSET -0.750000 0.000000 0.000000
									CHANNELS 3 Zrotation Yrotation Xrotation
									End Site
									{
										OFFSET 0.000000 0.000000 0.000000
									}
								}
							}
						}
					}
				}
			}
		}
	}
}
MOTION
Frames: 9
Frame Time: 0.016667
-0.128580 16.864340 -3.099960 -11.242072 -20.810596 -4.161715 -15.423821 13.341871 3.768039 16.442439 3.158238 -30.171190 -8.479759 14.632884 41.461782 0.673974 8.360875 1.248197 1.170090 1.031830 1.148910 18.000296 -9.919726 3.581661 6.321142 0.606299 -0.929930 12.108159 -4.873854 6.248158 -1.181867 -3.407631 2.893774 0.246750 -0.699520 0.586000 -2.566821 -2.884048 -8.988841 13.129732 2.646260 37.639256 0.811993 7.963870 20.431891 7.162725 -3.190463 -22.392557 -8.417039 4.451929 57.667796 -9.850710 3.284100 -34.079680 -32.337588 -33.950657 11.074404 -44.378122 -5.407109 -6.293856 -3.780791 -15.701690 -1.636718 -2.778593 3.269735 0.807100 -0.536290 1.010680 0.202060 19.482517 46.375968 18.342859 32.171740 42.782229 -5.811061 57.136748 72.203315 32.145048 0.317852 -3.585471 0.507060 -0.156350 -0.636110 -0.095230 
-0.129850 16.860490 -3.102340 -11.275155 -20.932956 -4.245124 -15.437214 13.343639 3.782443 16.588353 3.221572 -30.243793 -8.516938 14.739368 41.648895 0.685573 8.415148 1.228463 1.170990 1.033900 1.150670 17.992215 -9.891585 3.575058 6.329842 0.589077 -0.802198 12.166121 -4.886328 6.251335 -1.187545 -3.418330 2.887503 0.247230 -0.703340 0.587430 -2.537048 -2.936810 -8.996716 12.993052 2.683781 37.866119 0.864626 8.010278 20.484643 7.195141 -3.160636 -22.436165 -8.390956 4.468540 57.661161 -9.935550 3.312570 -34.192750 -32.418771 -34.057982 11.111706 -44.193114 -5.385500 -6.171980 -3.778989 -15.387238 -1.604911 -2.777227 3.269644 0.808030 -0.538380 1.014590 0.201660 19.496191 46.532518 18.359821 31.956313 42.781555 -5.738574 58.134538 72.790447 32.986793 0.242332 -3.702993 0.508700 -0.158330 -0.637750 -0.095080 
-0.132220 16.853170 -3.106270 -11.340307 -21.147667 -4.410089 -15.458907 13.346844 3.806908 16.849777 3.335638 -30.367214 -8.552790 14.924339 42.009419 0.704810 8.513666 1.192949 1.171310 1.035660 1.152600 17.979493 -9.843240 3.564926 6.348547 0.548689 -0.549666 12.269240 -4.909582 6.244362 -1.196865 -3.439698 2.876940 0.247710 -0.709030 0.588030 -2.489204 -3.028061 -9.009952 12.785988 2.726237 38.283195 0.935751 8.078573 20.599812 7.253195 -3.131539 -22.539976 -8.409346 4.511353 57.656348 -10.054290 3.328130 -34.358460 -32.587257 -34.284202 11.192903 -43.814820 -5.317855 -5.919720 -3.832033 -14.738172 -1.537948 -2.775369 3.266988 0.809950 -0.541950 1.019480 0.200410 19.553697 46.855201 18.413599 31.559714 42.745477 -5.579054 60.167986 73.946951 34.644512 0.077065 -3.956151 0.509890 -0.160330 -0.639290 -0.095320 
-0.135530 16.846020 -3.111850 -11.403434 -21.415383 -4.645967 -15.489493 13.361076 3.833016 17.144736 3.482409 -30.510716 -8.552320 15.132930 42.460933 0.728740 8.628142 1.152224 1.175420 1.039770 1.160390 17.959930 -9.778844 3.550931 6.378427 0.492163 -0.220758 12.366963 -4.939397 6.256851 -1.210600 -3.463117 2.864789 0.248030 -0.718600 0.589590 -2.417844 -3.164709 -9.024980 12.453100 2.815457 38.847637 1.096773 8.172624 20.767515 7.322891 -3.089359 -22.715272 -8.440791 4.565820 57.758278 -10.220150 3.338570 -34.599560 -32.757034 -34.620944 11.322975 -43.384369 -5.212192 -5.603692 -3.972361 -13.893394 -1.454110 -2.770971 3.261484 0.814510 -0.548350 1.028280 0.199240 19.608760 47.327447 18.506867 31.070729 42.613923 -5.349306 62.959817 75.449075 36.755275 -0.168182 -4.325382 0.512960 -0.162930 -0.644040 -0.096510 
-0.138880 16.839820 -3.117740 -11.467416 -21.700165 -4.918159 -15.519674 13.381417 3.853028 17.424995 3.646026 -30.633857 -8.504094 15.318067 42.905729 0.749263 8.732606 1.113770 1.184260 1.047750 1.171520 17.940365 -9.714287 3.537476 6.410875 0.422439 0.147110 12.445362 -4.970550 6.267758 -1.227561 -3.487420 2.852245 0.249610 -0.730920 0.591470 -2.346046 -3.311032 -9.036573 12.113860 2.916468 39.460977 1.302385 8.261990 21.051456 7.414048 -3.110061 -22.936995 -8.617258 4.675359 57.877481 -10.373630 3.308260 -34.981350 -32.858156 -35.026886 11.470969 -43.034011 -5.149612 -5.276733 -4.043883 -12.992898 -1.380892 -2.764325 3.255809 0.821920 -0.557480 1.038830 0.198230 19.590037 47.930352 18.661902 30.449723 42.405774 -4.968100 66.596595 77.429049 39.222088 -0.520651 -4.830573 0.517680 -0.165240 -0.649840 -0.098720 
-0.142660 16.835120 -3.123610 -11.528793 -21.994811 -5.189370 -15.550113 13.407866 3.868851 17.683301 3.824617 -30.760808 -8.405403 15.479325 43.340081 0.771304 8.825680 1.078897 1.193080 1.056550 1.182090 17.920442 -9.648474 3.525295 6.453382 0.344568 0.522873 12.505355 -4.995585 6.260995 -1.244675 -3.508914 2.840104 0.250650 -0.744050 0.593310 -2.272726 -3.468302 -9.051743 11.742505 3.051656 40.086283 1.586418 8.364316 21.406745 7.520932 -3.188326 -23.229460 -8.917441 4.818359 57.966054 -10.474230 3.254400 -35.363850 -32.898546 -35.479924 11.628394 -42.825410 -5.096732 -5.010732 -4.093361 -12.193785 -1.322072 -2.754840 3.252766 0.827850 -0.568120 1.050420 0.197600 19.532641 48.595278 18.978179 29.626545 42.173395 -4.012403 71.274458 80.220967 41.984001 -0.904547 -5.366868 0.524270 -0.168360 -0.656450 -0.099150 
-0.145420 16.832720 -3.129160 -11.619894 -22.265093 -5.447978 -15.579310 13.440015 3.881990 17.932363 4.011595 -30.884833 -8.260084 15.603267 43.744183 0.795597 8.900725 1.049580 1.204370 1.068680 1.193140 17.901704 -9.582155 3.517133 6.538870 0.258156 0.898623 12.530091 -5.012375 6.237121 -1.263047 -3.526006 2.829313 0.250800 -0.759760 0.596490 -2.202921 -3.633513 -9.076047 11.436531 3.164245 40.755432 1.867688 8.467365 21.761717 7.652878 -3.296999 -23.592917 -9.328880 4.989014 58.083303 -10.545730 3.172420 -35.729910 -32.849121 -35.908438 11.753063 -42.757481 -5.043557 -4.857010 -4.207367 -11.618244 -1.280244 -2.740011 3.255539 0.832360 -0.580970 1.064340 0.198460 19.355113 49.108563 19.536085 28.658605 42.129465 -2.017245 77.108690 84.215583 44.928097 -1.012341 -5.532394 0.535350 -0.174890 -0.665990 -0.097210 
-0.147910 16.831560 -3.133890 -11.701086 -22.514511 -5.664905 -15.613603 13.480626 3.890831 18.145163 4.200199 -31.016350 -8.074845 15.695374 44.105045 0.819203 8.961465 1.025836 1.213280 1.077880 1.203060 17.878744 -9.510852 3.507918 6.639092 0.178080 1.229155 12.527343 -5.020293 6.209784 -1.277178 -3.536271 2.822074 0.249120 -0.773770 0.599030 -2.119022 -3.820085 -9.101314 11.090743 3.267536 41.377318 2.112309 8.541882 22.026710 7.758018 -3.389772 -23.908713 -9.739964 5.150689 58.168678 -10.617110 3.096310 -35.978260 -32.768507 -36.157366 11.805760 -42.784352 -4.934905 -4.802602 -4.384068 -11.254779 -1.254544 -2.726431 3.259355 0.834380 -0.592300 1.076120 0.199120 19.123188 49.269052 20.158881 27.807296 42.584182 0.722584 82.935641 88.573791 48.005284 -0.411267 -4.835180 0.546130 -0.182050 -0.675290 -0.094670 
-0.149820 16.831100 -3.137210 -11.782986 -22.752359 -5.826651 -15.647923 13.521532 3.895407 18.341030 4.394789 -31.140544 -7.893150 15.768788 44.388121 0.841492 9.006441 1.007100 1.218750 1.086200 1.208000 17.856349 -9.439379 3.497240 6.743916 0.106675 1.511872 12.514891 -5.020770 6.175239 -1.287682 -3.542186 2.817076 0.246630 -0.785870 0.599550 -2.036705 -4.006780 -9.117240 10.769691 3.330938 41.918363 2.295461 8.578672 22.088137 7.819983 -3.490290 -24.056345 -10.176813 5.311922 58.232934 -10.706450 3.014370 -36.166030 -32.752105 -36.175134 11.814748 -42.884396 -4.748938 -4.798525 -4.646172 -11.002841 -1.235372 -2.714603 3.265021 0.832650 -0.602330 1.085000 0.199340 18.956475 49.214703 20.492535 27.402514 43.259827 2.745041 -93.291045 88.645481 -129.019488 0.692157 -3.529077 0.557040 -0.188740 -0.682160 -0.090610 
